<svg width="38" height="38" viewBox="0 0 38 38" fill="none" xmlns="http://www.w3.org/2000/svg">
<path d="M7.91667 33.25C7.04583 33.25 6.30061 32.9402 5.681 32.3206C5.06139 31.701 4.75106 30.9552 4.75 30.0833V7.91667C4.75 7.04583 5.06033 6.30061 5.681 5.681C6.30167 5.06139 7.04689 4.75106 7.91667 4.75H17.4167C17.8653 4.75 18.2416 4.902 18.5456 5.206C18.8496 5.51 19.0011 5.88578 19 6.33333C18.9989 6.78089 18.8469 7.15719 18.544 7.46225C18.2411 7.76731 17.8653 7.91878 17.4167 7.91667H7.91667V30.0833H17.4167C17.8653 30.0833 18.2416 30.2353 18.5456 30.5393C18.8496 30.8433 19.0011 31.2191 19 31.6667C18.9989 32.1142 18.8469 32.4905 18.544 32.7956C18.2411 33.1006 17.8653 33.2521 17.4167 33.25H7.91667ZM27.1937 20.5833H15.8333C15.3847 20.5833 15.0089 20.4313 14.706 20.1273C14.4031 19.8233 14.2511 19.4476 14.25 19C14.2489 18.5524 14.4009 18.1767 14.706 17.8727C15.0111 17.5687 15.3868 17.4167 15.8333 17.4167H27.1937L24.225 14.4479C23.9347 14.1576 23.7896 13.8014 23.7896 13.3792C23.7896 12.9569 23.9347 12.5875 24.225 12.2708C24.5153 11.9542 24.8847 11.789 25.3333 11.7752C25.7819 11.7615 26.1646 11.9135 26.4812 12.2312L32.1417 17.8917C32.4583 18.2083 32.6167 18.5778 32.6167 19C32.6167 19.4222 32.4583 19.7917 32.1417 20.1083L26.4812 25.7687C26.1646 26.0854 25.7888 26.2374 25.3539 26.2248C24.919 26.2121 24.5427 26.0469 24.225 25.7292C23.9347 25.4125 23.7964 25.0367 23.8102 24.6018C23.8239 24.1669 23.9754 23.8038 24.2646 23.5125L27.1937 20.5833Z" fill="black"/>
</svg>
