<svg width="38" height="38" viewBox="0 0 38 38" fill="none" xmlns="http://www.w3.org/2000/svg">
<path d="M14.6457 34.8333L14.0124 29.7666C13.6693 29.6347 13.3463 29.4763 13.0434 29.2916C12.7405 29.1069 12.4433 28.909 12.152 28.6979L7.44157 30.677L3.0874 23.1562L7.16449 20.0687C7.1381 19.884 7.1249 19.7061 7.1249 19.5351V18.4664C7.1249 18.2943 7.1381 18.1159 7.16449 17.9312L3.0874 14.8437L7.44157 7.32288L12.152 9.30204C12.4423 9.09093 12.7457 8.89301 13.0624 8.70829C13.3791 8.52357 13.6957 8.36524 14.0124 8.23329L14.6457 3.16663H23.3541L23.9874 8.23329C24.3305 8.36524 24.654 8.52357 24.958 8.70829C25.262 8.89301 25.5586 9.09093 25.8478 9.30204L30.5582 7.32288L34.9124 14.8437L30.8353 17.9312C30.8617 18.1159 30.8749 18.2943 30.8749 18.4664V19.5335C30.8749 19.7056 30.8485 19.884 30.7957 20.0687L34.8728 23.1562L30.5187 30.677L25.8478 28.6979C25.5575 28.909 25.2541 29.1069 24.9374 29.2916C24.6207 29.4763 24.3041 29.6347 23.9874 29.7666L23.3541 34.8333H14.6457ZM17.4166 31.6666H20.5437L21.0978 27.4708C21.9159 27.2597 22.6748 26.9499 23.3747 26.5414C24.0745 26.1329 24.7142 25.6378 25.2937 25.0562L29.2124 26.6791L30.7561 23.9875L27.352 21.4145C27.4839 21.0451 27.5763 20.6561 27.6291 20.2476C27.6818 19.8391 27.7082 19.4232 27.7082 19C27.7082 18.5767 27.6818 18.1613 27.6291 17.7539C27.5763 17.3464 27.4839 16.9569 27.352 16.5854L30.7561 14.0125L29.2124 11.3208L25.2937 12.9833C24.7131 12.3763 24.0734 11.8686 23.3747 11.4601C22.6759 11.0516 21.9169 10.7413 21.0978 10.5291L20.5832 6.33329H17.4562L16.902 10.5291C16.0839 10.7402 15.3255 11.0506 14.6267 11.4601C13.928 11.8697 13.2878 12.3642 12.7062 12.9437L8.7874 11.3208L7.24365 14.0125L10.6478 16.5458C10.5159 16.9416 10.4235 17.3375 10.3707 17.7333C10.318 18.1291 10.2916 18.5513 10.2916 19C10.2916 19.4222 10.318 19.8312 10.3707 20.227C10.4235 20.6229 10.5159 21.0187 10.6478 21.4145L7.24365 23.9875L8.7874 26.6791L12.7062 25.0166C13.2867 25.6236 13.9269 26.1318 14.6267 26.5414C15.3266 26.9509 16.085 27.2607 16.902 27.4708L17.4166 31.6666ZM19.0791 24.5416C20.6096 24.5416 21.9159 24.0007 22.9978 22.9187C24.0798 21.8368 24.6207 20.5305 24.6207 19C24.6207 17.4694 24.0798 16.1632 22.9978 15.0812C21.9159 13.9993 20.6096 13.4583 19.0791 13.4583C17.5221 13.4583 16.209 13.9993 15.1397 15.0812C14.0705 16.1632 13.5363 17.4694 13.5374 19C13.5385 20.5305 14.0731 21.8368 15.1413 22.9187C16.2095 24.0007 17.5221 24.5416 19.0791 24.5416Z" fill="black"/>
</svg>
