<svg width="38" height="38" viewBox="0 0 38 38" fill="none" xmlns="http://www.w3.org/2000/svg">
<path d="M3.1665 19H9.49984M26.9165 19H34.8332M4.74984 31.6825L4.76567 31.6651M9.49984 25.3492L9.51567 25.3318M14.2498 31.6825L14.2657 31.6651M18.9998 25.3492L19.0157 25.3318M23.7498 31.6825L23.7657 31.6651M28.4998 25.3492L28.5157 25.3318M33.2498 31.6825L33.2657 31.6651M14.2498 20.5834C14.2498 20.5834 15.6748 14.6601 18.9998 11.0834" stroke="black" stroke-width="3" stroke-linecap="round" stroke-linejoin="round"/>
<path d="M25.6278 3.54827L26.2199 9.70744C26.6047 13.7022 23.609 17.2599 19.6143 17.6431C15.6955 18.0199 12.1441 15.1557 11.7673 11.2354C11.5859 9.35327 12.1597 7.47623 13.3622 6.01713C14.5648 4.55802 16.2977 3.63635 18.1798 3.45485L24.7458 2.82152C24.8516 2.81126 24.9583 2.82198 25.06 2.85306C25.1616 2.88414 25.256 2.93496 25.338 3.00263C25.4199 3.07029 25.4877 3.15346 25.5374 3.24736C25.5871 3.34126 25.6178 3.44406 25.6278 3.54985" stroke="black" stroke-width="3" stroke-linecap="round" stroke-linejoin="round"/>
</svg>
