<svg width="30" height="31" viewBox="0 0 30 31" fill="none" xmlns="http://www.w3.org/2000/svg">
<rect y="0.5" width="30" height="30" rx="15" fill="#E5EDE9"/>
<rect x="0.25" y="0.75" width="29.5" height="29.5" rx="14.75" stroke="black" stroke-opacity="0.2" stroke-width="0.5"/>
<path d="M22.4984 7.99996V9.66663C22.4984 11.2137 21.8838 12.6975 20.7898 13.7914C19.6959 14.8854 18.2121 15.5 16.665 15.5H15.8317V16.3333H19.9984V22.1666C19.9984 22.6087 19.8228 23.0326 19.5102 23.3451C19.1977 23.6577 18.7737 23.8333 18.3317 23.8333H11.665C11.223 23.8333 10.7991 23.6577 10.4865 23.3451C10.174 23.0326 9.99837 22.6087 9.99837 22.1666V16.3333H14.165V13.8333C14.165 12.2862 14.7796 10.8025 15.8736 9.7085C16.9675 8.61454 18.4513 7.99996 19.9984 7.99996H22.4984ZM9.58171 7.16663C10.5817 7.16582 11.5672 7.40528 12.4553 7.86486C13.3435 8.32443 14.1081 8.99066 14.685 9.80746C13.8049 10.9648 13.3294 12.3793 13.3317 13.8333V14.6666H12.915C11.2574 14.6666 9.66772 14.0081 8.49562 12.836C7.32352 11.6639 6.66504 10.0742 6.66504 8.41663V7.16663H9.58171Z" fill="#377552"/>
</svg>
