<svg width="38" height="38" viewBox="0 0 38 38" fill="none" xmlns="http://www.w3.org/2000/svg">
<path d="M11.0835 28.5V26.9167C11.0835 24.817 11.9176 22.8034 13.4022 21.3187C14.8869 19.8341 16.9005 19 19.0002 19M19.0002 19C21.0998 19 23.1134 19.8341 24.5981 21.3187C26.0828 22.8034 26.9168 24.817 26.9168 26.9167V28.5M19.0002 19C20.2599 19 21.4681 18.4996 22.3589 17.6088C23.2497 16.718 23.7502 15.5098 23.7502 14.25C23.7502 12.9902 23.2497 11.782 22.3589 10.8912C21.4681 10.0004 20.2599 9.5 19.0002 9.5C17.7404 9.5 16.5322 10.0004 15.6414 10.8912C14.7506 11.782 14.2502 12.9902 14.2502 14.25C14.2502 15.5098 14.7506 16.718 15.6414 17.6088C16.5322 18.4996 17.7404 19 19.0002 19ZM1.5835 28.5V26.9167C1.5835 25.6569 2.08394 24.4487 2.97474 23.5579C3.86554 22.6671 5.07372 22.1667 6.3335 22.1667M6.3335 22.1667C7.17335 22.1667 7.9788 21.833 8.57267 21.2392C9.16653 20.6453 9.50016 19.8399 9.50016 19C9.50016 18.1601 9.16653 17.3547 8.57267 16.7608C7.9788 16.167 7.17335 15.8333 6.3335 15.8333C5.49364 15.8333 4.68819 16.167 4.09432 16.7608C3.50046 17.3547 3.16683 18.1601 3.16683 19C3.16683 19.8399 3.50046 20.6453 4.09432 21.2392C4.68819 21.833 5.49364 22.1667 6.3335 22.1667ZM36.4168 28.5V26.9167C36.4168 25.6569 35.9164 24.4487 35.0256 23.5579C34.1348 22.6671 32.9266 22.1667 31.6668 22.1667M31.6668 22.1667C32.5067 22.1667 33.3121 21.833 33.906 21.2392C34.4999 20.6453 34.8335 19.8399 34.8335 19C34.8335 18.1601 34.4999 17.3547 33.906 16.7608C33.3121 16.167 32.5067 15.8333 31.6668 15.8333C30.827 15.8333 30.0215 16.167 29.4277 16.7608C28.8338 17.3547 28.5002 18.1601 28.5002 19C28.5002 19.8399 28.8338 20.6453 29.4277 21.2392C30.0215 21.833 30.827 22.1667 31.6668 22.1667Z" stroke="black" stroke-width="3" stroke-linecap="round" stroke-linejoin="round"/>
</svg>
