<svg width="38" height="38" viewBox="0 0 38 38" fill="none" xmlns="http://www.w3.org/2000/svg">
<path d="M36.4166 6.49163V3.64163L33.5666 3.32496C33.4083 3.32496 32.4583 3.16663 30.875 3.16663C24.3833 3.16663 19.6333 5.06663 16.9416 8.39163C14.8833 7.12496 12.0333 6.33329 8.7083 6.33329C7.12497 6.33329 6.01663 6.49163 6.01663 6.49163L3.0083 6.96663L3.16663 9.65829C3.32497 14.4083 5.69997 23.4333 13.9333 23.4333H14.25V28.8166C8.2333 29.6083 3.16663 31.6666 3.16663 31.6666V34.8333H34.8333V31.6666C34.8333 31.6666 29.7666 29.6083 23.75 28.8166V23.75C33.725 23.5916 36.4166 12.35 36.4166 6.49163ZM19 28.5H17.4166V19.6333C17.4166 19.6333 17.1 14.25 12.6666 14.25C12.6666 14.25 15.0416 15.5166 15.675 20.1083C15.0416 20.2666 14.4083 20.2666 13.9333 20.2666C6.64997 20.2666 6.3333 9.65829 6.3333 9.65829C6.3333 9.65829 7.2833 9.49996 8.7083 9.49996C11.7166 9.49996 16.625 10.1333 18.05 14.4083C18.8416 7.28329 26.9166 6.33329 30.875 6.33329C32.3 6.33329 33.25 6.49163 33.25 6.49163C33.25 6.49163 33.25 20.7416 23.275 20.7416H22.1666C22.1666 17.575 25.3333 12.825 25.3333 12.825C20.5833 14.4083 20.5833 20.5833 20.5833 20.5833V28.5H19Z" fill="black"/>
</svg>
