<svg width="38" height="38" viewBox="0 0 38 38" fill="none" xmlns="http://www.w3.org/2000/svg">
<path d="M18.9207 28.5C19.4748 28.5 19.9435 28.3084 20.3267 27.9252C20.7098 27.542 20.9009 27.0739 20.8998 26.5208C20.8988 25.9677 20.7077 25.499 20.3267 25.1148C19.9456 24.7306 19.4769 24.5395 18.9207 24.5416C18.3644 24.5437 17.8963 24.7353 17.5163 25.1164C17.1363 25.4974 16.9447 25.9656 16.9415 26.5208C16.9383 27.076 17.1299 27.5447 17.5163 27.9268C17.9026 28.3089 18.3707 28.5 18.9207 28.5ZM17.4957 22.4041H20.4248C20.4248 21.5333 20.5241 20.8472 20.7225 20.3458C20.9209 19.8444 21.4814 19.1583 22.404 18.2875C23.0901 17.6014 23.6311 16.948 24.0269 16.3273C24.4228 15.7066 24.6207 14.9614 24.6207 14.0916C24.6207 12.6139 24.0797 11.4791 22.9978 10.6875C21.9158 9.8958 20.636 9.49997 19.1582 9.49997C17.654 9.49997 16.4338 9.8958 15.4975 10.6875C14.5612 11.4791 13.9078 12.4291 13.5373 13.5375L16.1498 14.5666C16.2818 14.0916 16.5789 13.5771 17.0413 13.0229C17.5036 12.4687 18.2092 12.1916 19.1582 12.1916C20.0026 12.1916 20.636 12.4228 21.0582 12.8851C21.4804 13.3475 21.6915 13.8552 21.6915 14.4083C21.6915 14.9361 21.5332 15.4311 21.2165 15.8935C20.8998 16.3558 20.504 16.7844 20.029 17.1791C18.8679 18.2083 18.1554 18.9868 17.8915 19.5146C17.6276 20.0423 17.4957 21.0055 17.4957 22.4041ZM18.9998 34.8333C16.8096 34.8333 14.7512 34.4179 12.8248 33.5872C10.8985 32.7565 9.22276 31.6281 7.79776 30.2021C6.37276 28.776 5.24489 27.1003 4.41417 25.175C3.58345 23.2496 3.16756 21.1913 3.16651 19C3.16545 16.8086 3.58134 14.7503 4.41417 12.825C5.24701 10.8996 6.37487 9.22394 7.79776 7.79788C9.22064 6.37183 10.8963 5.24397 12.8248 4.4143C14.7533 3.58463 16.8117 3.16875 18.9998 3.16663C21.188 3.16452 23.2463 3.58041 25.1748 4.4143C27.1033 5.24819 28.779 6.37605 30.2019 7.79788C31.6248 9.21972 32.7532 10.8954 33.5871 12.825C34.421 14.7545 34.8363 16.8129 34.8332 19C34.83 21.1871 34.4141 23.2454 33.5855 25.175C32.7569 27.1045 31.629 28.7802 30.2019 30.2021C28.7748 31.6239 27.0991 32.7523 25.1748 33.5872C23.2506 34.4222 21.1922 34.8375 18.9998 34.8333ZM18.9998 31.6666C22.5359 31.6666 25.5311 30.4396 27.9853 27.9854C30.4394 25.5312 31.6665 22.5361 31.6665 19C31.6665 15.4639 30.4394 12.4687 27.9853 10.0146C25.5311 7.56038 22.5359 6.3333 18.9998 6.3333C15.4637 6.3333 12.4686 7.56038 10.0144 10.0146C7.56026 12.4687 6.33317 15.4639 6.33317 19C6.33317 22.5361 7.56026 25.5312 10.0144 27.9854C12.4686 30.4396 15.4637 31.6666 18.9998 31.6666Z" fill="black"/>
</svg>
