<svg width="38" height="38" viewBox="0 0 38 38" fill="none" xmlns="http://www.w3.org/2000/svg">
<path fill-rule="evenodd" clip-rule="evenodd" d="M7.9169 14.2526C7.9169 11.3132 9.08461 8.49407 11.1631 6.41554C13.2417 4.33702 16.0608 3.16931 19.0002 3.16931C21.9397 3.16931 24.7588 4.33702 26.8373 6.41554C28.9159 8.49407 30.0836 11.3132 30.0836 14.2526V20.2123L32.9684 25.982C33.1012 26.2475 33.1639 26.5426 33.1506 26.8392C33.1372 27.1359 33.0483 27.4241 32.8922 27.6767C32.7361 27.9292 32.518 28.1377 32.2586 28.2823C31.9993 28.4268 31.7073 28.5027 31.4104 28.5026H25.1341C24.7819 29.8615 23.9884 31.065 22.8782 31.9241C21.7681 32.7832 20.404 33.2494 19.0002 33.2494C17.5965 33.2494 16.2324 32.7832 15.1222 31.9241C14.0121 31.065 13.2186 29.8615 12.8664 28.5026H6.59007C6.29316 28.5027 6.00117 28.4268 5.74182 28.2823C5.48248 28.1377 5.2644 27.9292 5.1083 27.6767C4.95219 27.4241 4.86325 27.1359 4.8499 26.8392C4.83656 26.5426 4.89927 26.2475 5.03207 25.982L7.9169 20.2123V14.2526ZM16.2579 28.5026C16.5358 28.984 16.9356 29.3837 17.417 29.6616C17.8983 29.9395 18.4444 30.0858 19.0002 30.0858C19.5561 30.0858 20.1021 29.9395 20.5835 29.6616C21.0649 29.3837 21.4646 28.984 21.7426 28.5026H16.2579ZM19.0002 6.33598C16.9006 6.33598 14.887 7.17005 13.4023 8.65472C11.9176 10.1394 11.0836 12.153 11.0836 14.2526V20.2123C11.0835 20.7037 10.9692 21.1883 10.7495 21.6278L8.89699 25.336H29.1051L27.2526 21.6278C27.0323 21.1884 26.9174 20.7038 26.9169 20.2123V14.2526C26.9169 12.153 26.0828 10.1394 24.5982 8.65472C23.1135 7.17005 21.0999 6.33598 19.0002 6.33598Z" fill="black"/>
</svg>
