<svg width="38" height="38" viewBox="0 0 38 38" fill="none" xmlns="http://www.w3.org/2000/svg">
<path d="M4.75016 23.75H20.5835C21.0034 23.75 21.4061 23.9168 21.7031 24.2137C22 24.5107 22.1668 24.9134 22.1668 25.3333C22.1668 25.7533 22 26.156 21.7031 26.4529C21.4061 26.7499 21.0034 26.9167 20.5835 26.9167H4.75016C4.33024 26.9167 3.92751 26.7499 3.63058 26.4529C3.33364 26.156 3.16683 25.7533 3.16683 25.3333C3.16683 24.9134 3.33364 24.5107 3.63058 24.2137C3.92751 23.9168 4.33024 23.75 4.75016 23.75ZM25.3335 23.75H33.2502C33.6701 23.75 34.0728 23.9168 34.3697 24.2137C34.6667 24.5107 34.8335 24.9134 34.8335 25.3333C34.8335 25.7533 34.6667 26.156 34.3697 26.4529C34.0728 26.7499 33.6701 26.9167 33.2502 26.9167H25.3335C24.9136 26.9167 24.5108 26.7499 24.2139 26.4529C23.917 26.156 23.7502 25.7533 23.7502 25.3333C23.7502 24.9134 23.917 24.5107 24.2139 24.2137C24.5108 23.9168 24.9136 23.75 25.3335 23.75ZM1.5835 19C1.5835 16.9004 2.41757 14.8867 3.90223 13.4021C5.3869 11.9174 7.40053 11.0833 9.50016 11.0833C11.0835 7.3625 14.7252 4.75 19.0002 4.75C24.431 4.75 28.8802 8.96167 29.2918 14.2975L30.0835 14.25C33.551 14.25 36.3693 17.0367 36.4168 20.5833H33.2502C33.2502 19.7435 32.9165 18.938 32.3227 18.3442C31.7288 17.7503 30.9233 17.4167 30.0835 17.4167H26.9168V15.8333C26.9168 13.7337 26.0828 11.7201 24.5981 10.2354C23.1134 8.75074 21.0998 7.91667 19.0002 7.91667C15.0418 7.91667 11.796 10.7983 11.1785 14.5508C10.656 14.3608 10.086 14.25 9.50016 14.25C8.24038 14.25 7.0322 14.7504 6.14141 15.6412C5.25061 16.532 4.75016 17.7402 4.75016 19C4.74936 19.5392 4.84039 20.0747 5.01933 20.5833H1.74183L1.5835 19ZM4.75016 30.0833H7.91683C8.33676 30.0833 8.73948 30.2501 9.03641 30.5471C9.33335 30.844 9.50016 31.2467 9.50016 31.6667C9.50016 32.0866 9.33335 32.4893 9.03641 32.7863C8.73948 33.0832 8.33676 33.25 7.91683 33.25H4.75016C4.33024 33.25 3.92751 33.0832 3.63058 32.7863C3.33364 32.4893 3.16683 32.0866 3.16683 31.6667C3.16683 31.2467 3.33364 30.844 3.63058 30.5471C3.92751 30.2501 4.33024 30.0833 4.75016 30.0833ZM12.6668 30.0833H33.2502C33.6701 30.0833 34.0728 30.2501 34.3697 30.5471C34.6667 30.844 34.8335 31.2467 34.8335 31.6667C34.8335 32.0866 34.6667 32.4893 34.3697 32.7863C34.0728 33.0832 33.6701 33.25 33.2502 33.25H12.6668C12.2469 33.25 11.8442 33.0832 11.5472 32.7863C11.2503 32.4893 11.0835 32.0866 11.0835 31.6667C11.0835 31.2467 11.2503 30.844 11.5472 30.5471C11.8442 30.2501 12.2469 30.0833 12.6668 30.0833Z" fill="black"/>
</svg>
