<svg width="26" height="26" viewBox="0 0 26 26" fill="none" xmlns="http://www.w3.org/2000/svg">
<path d="M18.8722 13.0208C18.8766 11.5526 18.3265 10.1368 17.3318 9.05683C16.3372 7.97684 14.9714 7.31227 13.5078 7.19611C12.0442 7.07995 10.5907 7.52075 9.43811 8.43033C8.28556 9.3399 7.51898 10.6511 7.29178 12.1017C7.88978 12.054 8.48648 12.0679 9.08188 12.1433C10.8382 12.3643 12.4671 13.0858 13.9816 13.9685C14.9046 14.508 16.072 14.6614 17.2992 14.4924C17.8179 14.4196 18.3132 14.2948 18.7656 14.1375C18.8366 13.7752 18.8722 13.4039 18.8722 13.0208ZM6.60018 5.69528L6.50918 5.61988C6.37571 5.52718 6.21237 5.48784 6.05134 5.50959C5.8903 5.53135 5.74326 5.61263 5.63918 5.73743C5.53511 5.86222 5.48155 6.02147 5.48906 6.18379C5.49658 6.34612 5.56462 6.49974 5.67978 6.61438L6.79518 7.72978L6.88618 7.80518C7.01964 7.89789 7.18298 7.93723 7.34401 7.91548C7.50505 7.89372 7.65209 7.81244 7.75617 7.68764C7.86024 7.56285 7.9138 7.4036 7.90629 7.24128C7.89878 7.07895 7.83073 6.92533 7.71558 6.81068L6.60018 5.69528ZM20.4608 6.52338C20.552 6.38986 20.5902 6.22712 20.5678 6.06696C20.5455 5.9068 20.4643 5.76071 20.34 5.65723C20.2157 5.55376 20.0573 5.50032 19.8958 5.50735C19.7342 5.51439 19.5811 5.5814 19.4663 5.69528L18.3496 6.81068L18.2742 6.90168C18.183 7.03521 18.1448 7.19795 18.1671 7.35811C18.1895 7.51827 18.2707 7.66436 18.395 7.76784C18.5192 7.87131 18.6776 7.92475 18.8392 7.91772C19.0007 7.91068 19.1539 7.84367 19.2687 7.72978L20.3854 6.61438L20.4608 6.52338ZM13.6761 3.16548C13.6471 3.00565 13.5594 2.86245 13.4302 2.76407C13.3009 2.66569 13.1395 2.61927 12.9777 2.63395C12.816 2.64862 12.6656 2.72333 12.5561 2.84337C12.4467 2.9634 12.3862 3.12005 12.3865 3.28248V4.85938L12.3969 4.97638C12.4258 5.13622 12.5135 5.27942 12.6428 5.3778C12.772 5.47618 12.9334 5.5226 13.0952 5.50792C13.257 5.49325 13.4074 5.41854 13.5168 5.2985C13.6262 5.17847 13.6868 5.02181 13.6865 4.85938V3.28118L13.6761 3.16548ZM4.86208 15.5207C6.23488 14.7719 7.50888 14.5665 8.75818 14.7225C10.0244 14.8824 11.3062 15.418 12.6712 16.2149C14.2351 17.1262 16.0304 17.2926 17.6554 17.0677C19.2778 16.8428 20.7884 16.2214 21.8284 15.4791C21.9687 15.3788 22.0634 15.2268 22.0917 15.0566C22.12 14.8864 22.0795 14.712 21.9792 14.5717C21.8788 14.4314 21.7269 14.3366 21.5567 14.3084C21.3865 14.2801 21.2121 14.3206 21.0718 14.4209C20.2164 15.0319 18.906 15.5818 17.4773 15.7794C16.0512 15.977 14.5705 15.8184 13.3264 15.0917C11.886 14.2519 10.4313 13.6227 8.91938 13.4329C7.39188 13.2418 5.84488 13.5031 4.23938 14.3793C4.16443 14.4202 4.09827 14.4754 4.04468 14.5419C3.99108 14.6083 3.9511 14.6847 3.92702 14.7666C3.90294 14.8485 3.89522 14.9344 3.90432 15.0192C3.91341 15.1041 3.93914 15.1864 3.98003 15.2613C4.0626 15.4127 4.20192 15.5251 4.36734 15.5737C4.44924 15.5978 4.53509 15.6055 4.61998 15.5964C4.70487 15.5873 4.78713 15.5616 4.86208 15.5207ZM8.75818 17.3225C7.50888 17.1665 6.23488 17.3719 4.86208 18.1207C4.78713 18.1617 4.70485 18.1875 4.61993 18.1966C4.53501 18.2058 4.44911 18.1982 4.36715 18.1741C4.20161 18.1256 4.06212 18.0133 3.97938 17.862C3.9384 17.787 3.91259 17.7048 3.90342 17.6198C3.89425 17.5349 3.90189 17.449 3.92591 17.3671C3.97443 17.2015 4.08672 17.062 4.23808 16.9793C5.84488 16.1031 7.39188 15.8418 8.92068 16.0329C10.4313 16.2227 11.886 16.8519 13.3277 17.6917C14.5705 18.4171 16.0512 18.577 17.4773 18.3807C18.9047 18.1818 20.2164 17.6332 21.0718 17.0209C21.2121 16.9206 21.3865 16.8801 21.5567 16.9084C21.7269 16.9366 21.8788 17.0314 21.9792 17.1717C22.0795 17.312 22.12 17.4864 22.0917 17.6566C22.0634 17.8268 21.9687 17.9788 21.8284 18.0791C20.7884 18.8201 19.2765 19.4428 17.6554 19.6677C16.0304 19.8926 14.2351 19.7262 12.6712 18.8149C11.3062 18.018 10.0244 17.4824 8.75818 17.3225ZM4.86208 20.722C6.23488 19.9732 7.50888 19.7678 8.75818 19.9238C10.0244 20.0837 11.3062 20.6193 12.6712 21.4162C14.2351 22.3275 16.0304 22.4939 17.6554 22.269C19.2778 22.0441 20.7884 21.4227 21.8284 20.6804C21.9687 20.5801 22.0634 20.4281 22.0917 20.2579C22.12 20.0877 22.0795 19.9133 21.9792 19.773C21.8788 19.6327 21.7269 19.5379 21.5567 19.5097C21.3865 19.4814 21.2121 19.5219 21.0718 19.6222C20.2164 20.2332 18.906 20.7831 17.4773 20.9807C16.0512 21.1783 14.5705 21.0197 13.3264 20.293C11.886 19.4532 10.4313 18.824 8.91938 18.6342C7.39188 18.4431 5.84488 18.7044 4.23938 19.5806C4.08802 19.6632 3.97566 19.8025 3.92702 19.9679C3.87838 20.1333 3.89745 20.3113 3.98003 20.4626C4.0626 20.614 4.20192 20.7264 4.36734 20.775C4.53275 20.8236 4.71072 20.8046 4.86208 20.722Z" fill="white"/>
</svg>
