<svg width="26" height="26" viewBox="0 0 26 26" fill="none" xmlns="http://www.w3.org/2000/svg">
<path d="M13 22.9048C18.4702 22.9048 22.9047 18.4703 22.9047 13C22.9047 7.52976 18.4702 3.09525 13 3.09525C7.52973 3.09525 3.09521 7.52976 3.09521 13C3.09521 18.4703 7.52973 22.9048 13 22.9048Z" stroke="white" stroke-linecap="round" stroke-linejoin="round"/>
<path d="M13 17.9524C15.7351 17.9524 17.9524 15.7351 17.9524 13C17.9524 10.2649 15.7351 8.04764 13 8.04764C10.2649 8.04764 8.04761 10.2649 8.04761 13C8.04761 15.7351 10.2649 17.9524 13 17.9524Z" stroke="white" stroke-linecap="round" stroke-linejoin="round"/>
<path d="M16.7142 9.28573L19.8095 6.19049M16.7142 16.7143L19.8095 19.8095M9.28567 16.7143L6.19043 19.8095M9.28567 9.28573L6.19043 6.19049" stroke="white" stroke-linecap="round" stroke-linejoin="round"/>
</svg>
