<svg width="26" height="26" viewBox="0 0 26 26" fill="none" xmlns="http://www.w3.org/2000/svg">
<path d="M6.5 8.125H13V9.75H6.5V8.125ZM6.5 4.875H16.25V6.5H6.5V4.875ZM6.5 1.625H16.25V3.25H6.5V1.625Z" fill="white"/>
<path d="M3.82769 22.75L8.40287 14.6283L14.443 19.9014C14.6256 20.0638 14.8425 20.183 15.0775 20.2501C15.3125 20.3171 15.5597 20.3303 15.8005 20.2886C16.0413 20.2469 16.2696 20.1514 16.4684 20.0092C16.6672 19.8671 16.8314 19.6819 16.9488 19.4675L22.6119 11.0151L21.2623 10.1099L15.5748 18.5989L15.5179 18.6826L9.477 13.4095C9.29447 13.248 9.07799 13.1295 8.84353 13.0628C8.60908 12.9961 8.36264 12.983 8.12242 13.0243C7.8822 13.0657 7.65433 13.1604 7.45565 13.3016C7.25696 13.4428 7.09253 13.6269 6.9745 13.8401L3.25 20.4612V1.625H1.625V22.75C1.625 23.181 1.7962 23.5943 2.10095 23.899C2.4057 24.2038 2.81902 24.375 3.25 24.375H24.375V22.75H3.82769Z" fill="white"/>
</svg>
