<svg width="26" height="26" viewBox="0 0 26 26" fill="none" xmlns="http://www.w3.org/2000/svg">
<path d="M22.7499 8.66666C21.1791 8.66666 20.3016 10.2267 20.6591 11.3858L16.8133 15.2425C16.4883 15.145 16.0116 15.145 15.6866 15.2425L12.9241 12.48C13.2924 11.3208 12.4149 9.75 10.8333 9.75C9.26242 9.75 8.37408 11.31 8.74242 12.48L3.80242 17.4092C2.64325 17.0517 1.08325 17.9292 1.08325 19.5C1.08325 20.6917 2.05825 21.6667 3.24992 21.6667C4.82075 21.6667 5.69825 20.1067 5.34075 18.9475L10.2699 14.0075C10.5949 14.105 11.0716 14.105 11.3966 14.0075L14.1591 16.77C13.7908 17.9292 14.6683 19.5 16.2499 19.5C17.8208 19.5 18.7091 17.94 18.3408 16.77L22.1974 12.9242C23.3566 13.2817 24.9166 12.4042 24.9166 10.8333C24.9166 9.64166 23.9416 8.66666 22.7499 8.66666Z" fill="white"/>
<path d="M16.2499 9.75L17.2682 7.5075L19.4999 6.5L17.2682 5.4925L16.2499 3.25L15.2533 5.4925L12.9999 6.5L15.2533 7.5075L16.2499 9.75ZM3.79158 11.9167L4.33325 9.75L6.49992 9.20833L4.33325 8.66667L3.79158 6.5L3.24992 8.66667L1.08325 9.20833L3.24992 9.75L3.79158 11.9167Z" fill="white"/>
</svg>
