<svg width="47" height="48" viewBox="0 0 47 48" fill="none" xmlns="http://www.w3.org/2000/svg">
<path d="M9.90625 38.0625H14.5938C14.8516 38.0625 15.0625 37.8516 15.0625 37.5938V10.4062C15.0625 10.1484 14.8516 9.9375 14.5938 9.9375H9.90625C9.64844 9.9375 9.4375 10.1484 9.4375 10.4062V37.5938C9.4375 37.8516 9.64844 38.0625 9.90625 38.0625ZM21.1562 21.6562H25.8438C26.1016 21.6562 26.3125 21.4453 26.3125 21.1875V10.4062C26.3125 10.1484 26.1016 9.9375 25.8438 9.9375H21.1562C20.8984 9.9375 20.6875 10.1484 20.6875 10.4062V21.1875C20.6875 21.4453 20.8984 21.6562 21.1562 21.6562ZM32.4062 25.875H37.0938C37.3516 25.875 37.5625 25.6641 37.5625 25.4062V10.4062C37.5625 10.1484 37.3516 9.9375 37.0938 9.9375H32.4062C32.1484 9.9375 31.9375 10.1484 31.9375 10.4062V25.4062C31.9375 25.6641 32.1484 25.875 32.4062 25.875ZM45.0625 0.5625H1.9375C0.900391 0.5625 0.0625 1.40039 0.0625 2.4375V45.5625C0.0625 46.5996 0.900391 47.4375 1.9375 47.4375H45.0625C46.0996 47.4375 46.9375 46.5996 46.9375 45.5625V2.4375C46.9375 1.40039 46.0996 0.5625 45.0625 0.5625ZM42.7188 43.2188H4.28125V4.78125H42.7188V43.2188Z" fill="white"/>
</svg>
