<svg width="61" height="60" viewBox="0 0 61 60" fill="none" xmlns="http://www.w3.org/2000/svg">
<path fill-rule="evenodd" clip-rule="evenodd" d="M28.0001 5C32.8325 5 36.7501 8.91746 36.7501 13.7499C36.7501 18.4214 33.0894 22.2378 28.4802 22.487L28.0001 22.5C23.1676 22.5 19.25 18.5825 19.25 13.7499C19.25 9.07859 22.9107 5.26203 27.52 5.01289L28.0001 5ZM10.5 50H32.5068C31.6124 48.4545 31.0029 46.761 30.7075 45H15.5V41L15.513 40.5146C15.7541 36.0187 19.3234 32.4999 23.625 32.4999H32.375L32.833 32.5133C33.2794 32.5394 33.7166 32.6034 34.1418 32.7022C35.4058 31.2375 36.9403 30.0302 38.6612 29.1461C36.7944 28.0966 34.6525 27.5 32.375 27.5H23.625L23.0841 27.5113C16.0862 27.803 10.5 33.7305 10.5 41V50ZM24.2501 13.7499C24.2501 11.6789 25.929 9.99992 28.0001 9.99992C30.0711 9.99992 31.7501 11.6789 31.7501 13.7499C31.7501 15.821 30.0711 17.4999 28.0001 17.4999C25.929 17.4999 24.2501 15.821 24.2501 13.7499ZM38.1527 52.6127L45.5 48.125L52.8473 52.6127L50.8498 44.2381L57.3882 38.6373L48.8064 37.9493L45.5 30L42.1937 37.9493L33.6118 38.6373L40.1503 44.2381L38.1527 52.6127Z" fill="#F3F7F5"/>
</svg>
