<svg width="61" height="60" viewBox="0 0 61 60" fill="none" xmlns="http://www.w3.org/2000/svg">
<path d="M48.7929 41.0097C47.3262 39.5419 45.6125 38.3439 43.7304 37.4706C46.3847 35.3202 48.078 32.039 48.078 28.3593C48.078 21.8671 42.664 16.5409 36.1718 16.6405C29.7792 16.7401 24.6288 21.9491 24.6288 28.3593C24.6288 32.039 26.328 35.3202 28.9765 37.4706C27.0939 38.3433 25.3801 39.5414 23.914 41.0097C20.7147 44.2148 18.8983 48.4452 18.7812 52.9569C18.7796 53.0195 18.7906 53.0817 18.8134 53.1399C18.8363 53.1982 18.8705 53.2512 18.9142 53.296C18.9579 53.3408 19.0101 53.3764 19.0678 53.4006C19.1254 53.4249 19.1873 53.4374 19.2499 53.4374H22.5312C22.7831 53.4374 22.994 53.2382 22.9999 52.9862C23.1112 49.5878 24.4882 46.4062 26.9081 43.9921C28.1464 42.7472 29.6194 41.7603 31.2416 41.0884C32.8639 40.4166 34.6034 40.0731 36.3593 40.078C39.9276 40.078 43.2851 41.4667 45.8104 43.9921C48.2245 46.4062 49.6015 49.5878 49.7187 52.9862C49.7245 53.2382 49.9354 53.4374 50.1874 53.4374H53.4687C53.5312 53.4374 53.5931 53.4249 53.6508 53.4006C53.7084 53.3764 53.7606 53.3408 53.8043 53.296C53.848 53.2512 53.8823 53.1982 53.9051 53.1399C53.928 53.0817 53.939 53.0195 53.9374 52.9569C53.8202 48.4452 52.0038 44.2148 48.7929 41.0097ZM36.3593 35.8593C34.3554 35.8593 32.4687 35.08 31.0565 33.662C30.3479 32.9589 29.7881 32.1203 29.4106 31.1962C29.0331 30.272 28.8456 29.2813 28.8593 28.2831C28.8769 26.3612 29.6444 24.5038 30.9862 23.1269C32.3925 21.6855 34.2733 20.8827 36.2831 20.8593C38.2694 20.8417 40.1972 21.6151 41.6151 23.0038C43.0683 24.4276 43.8651 26.3319 43.8651 28.3593C43.8651 30.3632 43.0858 32.2441 41.6679 33.662C40.9722 34.361 40.1448 34.9151 39.2336 35.2923C38.3224 35.6694 37.3455 35.8622 36.3593 35.8593ZM21.6815 29.9062C21.6288 29.3964 21.5995 28.8808 21.5995 28.3593C21.5995 27.4276 21.6874 26.5194 21.8515 25.6347C21.8925 25.4237 21.7812 25.2069 21.5878 25.1191C20.7909 24.7616 20.0585 24.2694 19.4257 23.6483C18.68 22.9253 18.0933 22.0548 17.7028 21.0924C17.3124 20.1299 17.1269 19.0967 17.1581 18.0585C17.2108 16.1776 17.9667 14.3905 19.2851 13.0429C20.7323 11.5605 22.6776 10.7519 24.746 10.7753C26.6151 10.7929 28.4198 11.5136 29.7851 12.7909C30.2479 13.2245 30.6464 13.705 30.9804 14.2206C31.0976 14.4023 31.3261 14.4784 31.5253 14.4081C32.5565 14.0507 33.6464 13.7987 34.7655 13.6816C35.0937 13.6464 35.2811 13.2948 35.1347 13.0019C33.2304 9.23428 29.3397 6.63272 24.8397 6.56241C18.3417 6.4628 12.9276 11.789 12.9276 18.2753C12.9276 21.955 14.621 25.2362 17.2753 27.3866C15.412 28.248 13.6952 29.4374 12.2069 30.9257C8.996 34.1308 7.17959 38.3612 7.0624 42.8788C7.06084 42.9413 7.07181 43.0036 7.09466 43.0618C7.11752 43.12 7.1518 43.1731 7.19548 43.2179C7.23917 43.2626 7.29137 43.2982 7.34902 43.3225C7.40667 43.3468 7.4686 43.3593 7.53115 43.3593H10.8183C11.0702 43.3593 11.2812 43.1601 11.287 42.9081C11.3983 39.5097 12.7753 36.328 15.1952 33.914C16.9179 32.1913 19.0272 30.996 21.33 30.4159C21.5585 30.3573 21.7108 30.1405 21.6815 29.9062Z" fill="white"/>
</svg>
