<svg width="61" height="60" viewBox="0 0 61 60" fill="none" xmlns="http://www.w3.org/2000/svg">
<path d="M48.625 6.875H12.375C9.61358 6.875 7.375 9.11358 7.375 11.875V48.125C7.375 50.8864 9.61358 53.125 12.375 53.125H48.625C51.3864 53.125 53.625 50.8864 53.625 48.125V11.875C53.625 9.11358 51.3864 6.875 48.625 6.875Z" stroke="white" stroke-width="4" stroke-linecap="round" stroke-linejoin="round"/>
<path d="M41.4375 24.375C40.0285 24.375 38.6773 23.8153 37.681 22.819C36.6847 21.8227 36.125 20.4715 36.125 19.0625C36.125 17.6535 35.5653 16.3023 34.569 15.306C33.5727 14.3097 32.2215 13.75 30.8125 13.75H30.1875C28.7785 13.75 27.4273 14.3097 26.431 15.306C25.4347 16.3023 24.875 17.6535 24.875 19.0625C24.875 20.4715 24.3153 21.8227 23.319 22.819C22.3227 23.8153 20.9715 24.375 19.5625 24.375C18.1535 24.375 16.8023 24.9347 15.806 25.931C14.8097 26.9273 14.25 28.2785 14.25 29.6875V30.3125C14.25 31.7215 14.8097 33.0727 15.806 34.069C16.8023 35.0653 18.1535 35.625 19.5625 35.625C20.9715 35.625 22.3227 36.1847 23.319 37.181C24.3153 38.1773 24.875 39.5285 24.875 40.9375C24.875 42.3465 25.4347 43.6977 26.431 44.694C27.4273 45.6903 28.7785 46.25 30.1875 46.25H30.8125C32.2215 46.25 33.5727 45.6903 34.569 44.694C35.5653 43.6977 36.125 42.3465 36.125 40.9375C36.125 39.5285 36.6847 38.1773 37.681 37.181C38.6773 36.1847 40.0285 35.625 41.4375 35.625C42.8465 35.625 44.1977 35.0653 45.194 34.069C46.1903 33.0727 46.75 31.7215 46.75 30.3125V29.6875C46.75 28.2785 46.1903 26.9273 45.194 25.931C44.1977 24.9347 42.8465 24.375 41.4375 24.375Z" stroke="white" stroke-width="3" stroke-linecap="round" stroke-linejoin="round"/>
<path d="M42.2124 33.7561C41.2163 32.7599 40.6567 31.4087 40.6567 29.9999C40.6567 28.5911 41.2163 27.2399 42.2124 26.2437C43.2085 25.2474 43.7681 23.8962 43.7681 22.4874C43.7681 21.0786 43.2085 19.7274 42.2124 18.7311L41.7699 18.2886C40.7736 17.2925 39.4225 16.7329 38.0136 16.7329C36.6048 16.7329 35.2537 17.2925 34.2574 18.2886C33.7641 18.7821 33.1784 19.1735 32.5338 19.4405C31.8892 19.7076 31.1983 19.845 30.5005 19.845C29.8028 19.845 29.1119 19.7076 28.4673 19.4405C27.8227 19.1735 27.237 18.7821 26.7437 18.2886C25.7474 17.2925 24.3962 16.7329 22.9874 16.7329C21.5786 16.7329 20.2274 17.2925 19.2311 18.2886L18.7886 18.7299C17.7925 19.7262 17.2329 21.0773 17.2329 22.4862C17.2329 23.895 17.7925 25.2461 18.7886 26.2424C19.2821 26.7357 19.6735 27.3214 19.9405 27.966C20.2076 28.6106 20.345 29.3015 20.345 29.9993C20.345 30.697 20.2076 31.3879 19.9405 32.0325C19.6735 32.6771 19.2821 33.2628 18.7886 33.7561C17.7925 34.7524 17.2329 36.1036 17.2329 37.5124C17.2329 38.9212 17.7925 40.2724 18.7886 41.2686L19.2299 41.7111C20.2262 42.7073 21.5773 43.2669 22.9862 43.2669C24.395 43.2669 25.7461 42.7073 26.7424 41.7111C27.2357 41.2177 27.8214 40.8263 28.466 40.5593C29.1106 40.2922 29.8015 40.1548 30.4993 40.1548C31.197 40.1548 31.8879 40.2922 32.5325 40.5593C33.1771 40.8263 33.7628 41.2177 34.2561 41.7111C35.2524 42.7073 36.6036 43.2669 38.0124 43.2669C39.4212 43.2669 40.7724 42.7073 41.7686 41.7111L42.2111 41.2699C43.2073 40.2736 43.7669 38.9225 43.7669 37.5136C43.7669 36.1048 43.2073 34.7537 42.2111 33.7574" stroke="white" stroke-width="3" stroke-linecap="round" stroke-linejoin="round"/>
</svg>
